<svg width="24" height="24" viewBox="0 0 24 24" fill="none" xmlns="http://www.w3.org/2000/svg">
<path d="M15.0068 12.2957C13.9566 13.3459 12.2539 13.3459 11.2036 12.2957C10.1535 11.2454 10.1535 9.54269 11.2036 8.49244L13.5807 6.11543C14.583 5.11301 16.1799 5.06738 17.2365 5.97856M16.9085 2.78767C17.9587 1.73744 19.6614 1.73744 20.7117 2.78767C21.7619 3.83789 21.7619 5.54064 20.7117 6.59087L18.3346 8.96787C17.3323 9.97031 15.7354 10.016 14.6789 9.1047" stroke="#8383A4" stroke-width="1.5" stroke-linecap="round"/>
<path d="M21.5 12.5556C21.5 16.5363 21.5 18.5267 20.2633 19.7633C19.0267 21 17.0363 21 13.0556 21H10.9444C6.96369 21 4.97332 21 3.73666 19.7633C2.5 18.5267 2.5 16.5363 2.5 12.5556V10.4444C2.5 6.46369 2.5 4.47332 3.73666 3.23666C4.97332 2 6.96369 2 10.9444 2" stroke="#8383A4" stroke-width="1.5" stroke-linecap="round"/>
</svg>
