<svg xmlns="http://www.w3.org/2000/svg" width="18" height="17" viewBox="0 0 18 17" fill="none">
<path d="M7.05279 8.5L8.82622 10.2647L12.8164 6.29412M9.71293 16C13.8755 16 17.25 12.6421 17.25 8.5C17.25 4.35786 13.8755 1 9.71293 1C5.55032 1 2.17586 4.35786 2.17586 8.5C2.17586 9.33823 2.31405 10.1443 2.569 10.897C2.66494 11.1803 2.71291 11.3219 2.72157 11.4307C2.73011 11.5381 2.72365 11.6134 2.69694 11.7179C2.66989 11.8237 2.61017 11.9337 2.49072 12.1537L1.04036 14.825C0.833483 15.2061 0.730042 15.3966 0.753193 15.5436C0.773358 15.6717 0.849109 15.7845 0.960326 15.852C1.08802 15.9295 1.30448 15.9072 1.73741 15.8627L6.2783 15.3956C6.41581 15.3815 6.48457 15.3744 6.54724 15.3768C6.60887 15.3791 6.65239 15.3849 6.71249 15.3987C6.77361 15.4127 6.85046 15.4421 7.00415 15.5011C7.84481 15.8233 8.75813 16 9.71293 16Z" stroke="#8383A4" stroke-width="1.2" stroke-linecap="round" stroke-linejoin="round"/>
</svg>