<svg width="28" height="28" viewBox="0 0 28 28" fill="none" xmlns="http://www.w3.org/2000/svg">
<path d="M13.5591 1.88518C13.7474 1.53284 14.2526 1.53284 14.4409 1.88518L17.6424 7.87318C17.859 8.27824 18.2492 8.56175 18.7014 8.64255L25.3856 9.83696C25.7789 9.90724 25.935 10.3876 25.6581 10.6757L20.9525 15.5709C20.6342 15.902 20.4852 16.3607 20.548 16.8157L21.4776 23.5419C21.5323 23.9377 21.1237 24.2346 20.7642 24.0603L14.6545 21.0977C14.2412 20.8973 13.7588 20.8973 13.3455 21.0977L7.23581 24.0603C6.87631 24.2346 6.46766 23.9377 6.52236 23.5419L7.45196 16.8157C7.51484 16.3607 7.36579 15.902 7.04747 15.5709L2.34186 10.6757C2.06498 10.3876 2.22107 9.90724 2.61437 9.83696L9.29862 8.64255C9.75078 8.56176 10.141 8.27824 10.3576 7.87318L13.5591 1.88518Z" stroke="#E1E1ED"/>
</svg>
