<svg xmlns="http://www.w3.org/2000/svg" width="24" height="24" viewBox="0 0 24 24" fill="none">
    <path d="M11.6107 15.3649C11.3387 15.3649 11.1239 15.2758 10.9664 15.0975C10.8233 14.9192 10.7374 14.6667 10.7087 14.3398L10.0644 5.8273C10.0215 5.27762 10.136 4.83937 10.4081 4.51253C10.6801 4.17084 11.081 4 11.6107 4C12.1262 4 12.5128 4.17084 12.7705 4.51253C13.0425 4.83937 13.157 5.27762 13.1141 5.8273L12.4698 14.3398C12.4555 14.6667 12.3696 14.9192 12.2121 15.0975C12.0689 15.2758 11.8685 15.3649 11.6107 15.3649ZM11.6107 20C11.1239 20 10.7302 19.844 10.4295 19.532C10.1432 19.2201 10 18.8189 10 18.3287C10 17.8533 10.1432 17.467 10.4295 17.1699C10.7302 16.8579 11.1239 16.702 11.6107 16.702C12.1119 16.702 12.4984 16.8579 12.7705 17.1699C13.0568 17.467 13.2 17.8533 13.2 18.3287C13.2 18.8189 13.0568 19.2201 12.7705 19.532C12.4984 19.844 12.1119 20 11.6107 20Z" fill="#8383A4"/>
</svg>
